STARTFONT 2.3
FONT -FontForge-Satisfy-Book-R-Normal--20-200-72-72-P-86-ISO10646-1
SIZE 20 72 72  4
FONTBOUNDINGBOX 24 29 -5 -10
COMMENT "Generated by fontforge, http://fontforge.sourceforge.net"
COMMENT "Copyright (c) 2011 by Font Diner, Inc. All rights reserved."
STARTPROPERTIES 40
FOUNDRY "FontForge"
FAMILY_NAME "Satisfy"
WEIGHT_NAME "Book"
SLANT "R"
SETWIDTH_NAME "Normal"
ADD_STYLE_NAME ""
PIXEL_SIZE 20
POINT_SIZE 200
RESOLUTION_X 72
RESOLUTION_Y 72
SPACING "P"
AVERAGE_WIDTH 86
CHARSET_REGISTRY "ISO10646"
CHARSET_ENCODING "1"
FONTNAME_REGISTRY ""
CHARSET_COLLECTIONS "ISO10646-1"
BITS_PER_PIXEL 4
FONT_NAME "Satisfy-Regular"
FACE_NAME "Satisfy Regular"
COPYRIGHT "Copyright (c) 2011 by Font Diner, Inc. All rights reserved."
FONT_VERSION "1.001"
FONT_ASCENT 16
FONT_DESCENT 4
UNDERLINE_POSITION -2
UNDERLINE_THICKNESS 1
X_HEIGHT 8
CAP_HEIGHT 14
RAW_ASCENT 799
RAW_DESCENT 200
NORM_SPACE 6
RELATIVE_WEIGHT 40
RELATIVE_SETWIDTH 50
SUPERSCRIPT_X 0
SUPERSCRIPT_Y 9
SUPERSCRIPT_SIZE 13
SUBSCRIPT_X 0
SUBSCRIPT_Y 2
SUBSCRIPT_SIZE 13
AVG_LOWERCASE_WIDTH 81
AVG_UPPERCASE_WIDTH 112
ENDPROPERTIES
CHARS 227
STARTCHAR space
ENCODING 32
SWIDTH 280 0
DWIDTH 6 0
BBX 1 1 0 0
BITMAP
00
ENDCHAR
STARTCHAR exclam
ENCODING 33
SWIDTH 249 0
DWIDTH 5 0
BBX 7 16 -1 -1
BITMAP
00005A30
0000EF20
0002FC00
0005F800
0009F400
000CF100
001FB000
004F7000
007F3000
00BE0000
00EA0000
02F50000
02300000
04710000
4FF20000
16200000
ENDCHAR
STARTCHAR quotedbl
ENCODING 34
SWIDTH 249 0
DWIDTH 5 0
BBX 7 7 0 8
BITMAP
00670840
02F76F30
06F29D00
09D0D900
0D92F500
1F55F100
03012000
ENDCHAR
STARTCHAR numbersign
ENCODING 35
SWIDTH 417 0
DWIDTH 8 0
BBX 10 11 -1 2
BITMAP
0000171170
00007C08C0
0000C70D70
02ACFDDFDA
059CD6BC63
000B70C600
068FB9FA80
4DEEADE980
00C90C8000
02F52F4000
0491491000
ENDCHAR
STARTCHAR dollar
ENCODING 36
SWIDTH 292 0
DWIDTH 6 0
BBX 8 16 -1 -1
BITMAP
00000520
00000E10
0006DDB1
006E20D6
00C800C8
00D802F4
00AD0220
004F5000
000CC000
0004F400
4A00D800
A900C800
6E36E200
05F92000
03E00000
01200000
ENDCHAR
STARTCHAR percent
ENCODING 37
SWIDTH 574 0
DWIDTH 11 0
BBX 12 16 0 -1
BITMAP
001650000175
01DBC7000AD1
09B05D006E30
1F405D02E600
3F109B0BA000
2F12E57D1000
0DCD93E40000
02640C900000
00008D159500
0003F46E7E40
000D91E50A90
008D15E00A80
04F507B00E50
1DB007C07D00
9F2002EDE300
410000241000
ENDCHAR
STARTCHAR ampersand
ENCODING 38
SWIDTH 460 0
DWIDTH 9 0
BBX 10 16 -1 -1
BITMAP
0000007C90
000009A2E2
00004F13E1
00009D2D70
0000BDDB00
0000DFC100
0003ED1000
002EFD0000
02DDDF0000
0CF3AF2000
7F709F5000
CE006F8035
FB003FB5B1
DE300EFA00
6FFEEFF900
036634EA20
ENDCHAR
STARTCHAR quotesingle
ENCODING 39
SWIDTH 113 0
DWIDTH 2 0
BBX 4 7 0 8
BITMAP
0067
02F7
06F2
09D0
0D90
1F50
0300
ENDCHAR
STARTCHAR parenleft
ENCODING 40
SWIDTH 234 0
DWIDTH 5 0
BBX 7 20 0 -3
BITMAP
00000230
00003E30
0001D700
0009C000
002F4000
009C0000
01E70000
05F20000
0AC00000
0E900000
2F700000
5F400000
7F100000
8E000000
9D000000
8D000000
6E000000
3F200000
0B200000
01000000
ENDCHAR
STARTCHAR parenright
ENCODING 41
SWIDTH 204 0
DWIDTH 4 0
BBX 7 20 -3 -3
BITMAP
00000300
00000D20
00000C70
000009B0
000009C0
000009D0
00000BC0
00000CB0
00000F80
00003F60
00006F20
00009D00
0000E800
0004F300
000AC000
002F5000
00AB0000
06E20000
0D300000
11000000
ENDCHAR
STARTCHAR asterisk
ENCODING 42
SWIDTH 327 0
DWIDTH 7 0
BBX 7 8 1 7
BITMAP
00064000
121FA000
BD3F3440
5ADEDF90
05DD4110
7F98E300
1B13E500
00001000
ENDCHAR
STARTCHAR plus
ENCODING 43
SWIDTH 350 0
DWIDTH 7 0
BBX 8 8 -1 3
BITMAP
00004800
0000BB00
0000F700
0AEFFFFB
1A7BF553
000AC000
000E8000
00020000
ENDCHAR
STARTCHAR comma
ENCODING 44
SWIDTH 200 0
DWIDTH 4 0
BBX 3 5 -1 -3
BITMAP
0630
8FB0
3D80
1C10
3100
ENDCHAR
STARTCHAR hyphen
ENCODING 45
SWIDTH 353 0
DWIDTH 7 0
BBX 8 2 -1 5
BITMAP
1BEEFFE9
39766552
ENDCHAR
STARTCHAR period
ENCODING 46
SWIDTH 213 0
DWIDTH 4 0
BBX 3 3 -1 -1
BITMAP
0560
7FD0
2610
ENDCHAR
STARTCHAR slash
ENCODING 47
SWIDTH 262 0
DWIDTH 5 0
BBX 10 16 -2 -1
BITMAP
0000000076
00000007F2
0000001E70
0000009D00
000002F500
00000AB000
00004F2000
0000C90000
0006E10000
001D800000
007E100000
01E7000000
09E1000000
2F80000000
AE10000000
4100000000
ENDCHAR
STARTCHAR zero
ENCODING 48
SWIDTH 489 0
DWIDTH 10 0
BBX 9 16 0 -1
BITMAP
000018A400
0002DDAF20
000CD10C90
007F4009C0
01EB0008E0
06F50008E0
0BF1000AD0
1FC0000DC0
3F90001F90
5F70005F60
6F6000BF10
5F6001FA00
2F7009F200
0DC05F7000
05FDF70000
0046200000
ENDCHAR
STARTCHAR one
ENCODING 49
SWIDTH 272 0
DWIDTH 5 0
BBX 6 16 0 -1
BITMAP
000360
004EF1
00BFD0
002F90
004F50
007F10
00AD00
00D900
02F500
05F200
09D000
0E9000
3F6000
7F4000
AF5000
141000
ENDCHAR
STARTCHAR two
ENCODING 50
SWIDTH 448 0
DWIDTH 9 0
BBX 10 16 -1 -1
BITMAP
0000059B70
0001CA28F5
000CD103F9
004F8003F9
003E7006F6
0000000CE1
0000005F60
000001DB00
00000BD100
0001BE2000
001CE20000
02DD200000
0CD1000000
7F9ACDC800
4FFDCDFC00
0510001300
ENDCHAR
STARTCHAR three
ENCODING 51
SWIDTH 462 0
DWIDTH 9 0
BBX 9 16 0 -1
BITMAP
00028AA500
005FC68F60
02FC000DC0
06F7000EC0
04FA003F80
002101DE10
00001BE300
0005DD3000
001EBDB100
000101F800
000000EA00
010002F700
CE0008F200
EF305F8000
6FEDF80000
0377300000
ENDCHAR
STARTCHAR four
ENCODING 52
SWIDTH 452 0
DWIDTH 9 0
BBX 9 16 0 -1
BITMAP
0000003740
000007FF60
00003FAF20
0002EA6D00
001CC1AA00
00BD20E600
0AE303F300
AF5018F200
DFEFFFFE00
59643EB900
00003F7000
00007F5000
0000BF3000
0000EF1000
0001FF1000
0000530000
ENDCHAR
STARTCHAR five
ENCODING 53
SWIDTH 444 0
DWIDTH 9 0
BBX 10 16 0 -1
BITMAP
0001467860
000EFFFFF3
004F3249D1
008A000010
00D6000000
03F1000000
08C5DFB100
0CEF9AF600
0CE400E800
001000D700
000001F400
290006D000
CE002D5000
EFC8DB0000
7FFFB10000
0474000000
ENDCHAR
STARTCHAR six
ENCODING 54
SWIDTH 477 0
DWIDTH 10 0
BBX 9 16 0 -1
BITMAP
0000049910
00008E7F70
0006F30E90
002E804F50
00AE101200
02F8154000
08F6EBE900
0CFE806F10
1FFE105F40
3F95007F30
4F7000AF10
3F7000EB00
1F9006F400
0CD02EA000
04FCEA1000
0037400000
ENDCHAR
STARTCHAR seven
ENCODING 55
SWIDTH 406 0
DWIDTH 8 0
BBX 8 16 1 -1
BITMAP
03578884
3FFFEDFE
5C5100AB
100006E2
00002E60
0000CC00
0007F400
002EA000
009F2000
02FA0000
0AF30000
2FC00000
8F700000
CF200000
EF100000
22000000
ENDCHAR
STARTCHAR eight
ENCODING 56
SWIDTH 444 0
DWIDTH 9 0
BBX 10 16 -1 -1
BITMAP
0000039A60
00006D41A7
0001E5006B
0007F200B9
0008F308E2
0006F88F50
0002FFF500
0002DFB000
003EACF300
01EB04FA00
09E100EE00
1F8000CF00
3F5000EC00
1F6006F400
09E8AF6000
0047620000
ENDCHAR
STARTCHAR nine
ENCODING 57
SWIDTH 462 0
DWIDTH 9 0
BBX 9 16 0 -1
BITMAP
000039A300
0007E77E10
005F500D60
00DB000B90
05F4000CA0
09E0006E90
0BC000CF80
0CC003EF50
09E10CBF20
04FCC99D00
005852E700
010009E100
49005F7000
8F77FB0000
4FFFA10000
0363000000
ENDCHAR
STARTCHAR colon
ENCODING 58
SWIDTH 226 0
DWIDTH 5 0
BBX 5 7 -1 -1
BITMAP
017700
07FE10
014100
000000
056000
7FD000
261000
ENDCHAR
STARTCHAR semicolon
ENCODING 59
SWIDTH 212 0
DWIDTH 4 0
BBX 4 9 -1 -3
BITMAP
0285
0BFA
0240
0000
0630
8FB0
3D80
1C10
3100
ENDCHAR
STARTCHAR less
ENCODING 60
SWIDTH 271 0
DWIDTH 5 0
BBX 7 9 -1 2
BITMAP
00000350
0001BE40
002DE300
04ED2000
1FD10000
0AE20000
02FA0000
008F4000
001A7000
ENDCHAR
STARTCHAR equal
ENCODING 61
SWIDTH 374 0
DWIDTH 7 0
BBX 9 5 -1 4
BITMAP
008BCCCB30
03CA988810
0146665200
0DFFEEE600
1410000000
ENDCHAR
STARTCHAR greater
ENCODING 62
SWIDTH 250 0
DWIDTH 5 0
BBX 7 9 -2 2
BITMAP
00053000
000BE200
0003FA00
00008F30
00002FB0
0001CF50
002DE300
03EC2000
19710000
ENDCHAR
STARTCHAR question
ENCODING 63
SWIDTH 413 0
DWIDTH 8 0
BBX 11 16 -1 -1
BITMAP
000059CB6000
001BF968FB00
00AF50008F30
00CF00008F30
00261000CE00
00000005F700
0000004EB000
00015AF90000
003EEA300000
008F40000000
00BF00000000
01FA00000000
028100000000
035100000000
3FF700000000
177000000000
ENDCHAR
STARTCHAR at
ENCODING 64
SWIDTH 648 0
DWIDTH 13 0
BBX 14 14 -1 -1
BITMAP
0000028BCB6000
0001AD72029C10
002DA1025108A0
01CB008EEA91F3
08E10AB1AFC0C7
1E707D11AF60B9
5F22F4004E10B9
7E07E000A900D7
7D09C005F304F2
5F17F78EC00CA0
0D819B8A808E20
04E7000ADBE300
003BC812981000
00002400000000
ENDCHAR
STARTCHAR A
ENCODING 65
SWIDTH 552 0
DWIDTH 11 0
BBX 12 20 -2 -5
BITMAP
0000000018A5
00000003EBBE
0000002E807E
000000BB009C
000005F300C9
00000DC001F7
00004F6004F4
0000AE1007F2
0001FA000AE0
0006F5000DC0
000BF8887FB2
17CFFEEEFFF7
57AF80007F80
00CF40008F30
03FE0000BF10
08FB0000DF00
0EF60000EF00
6FE10000EF20
76100000CF80
000000005610
ENDCHAR
STARTCHAR B
ENCODING 66
SWIDTH 607 0
DWIDTH 12 0
BBX 13 19 -1 -4
BITMAP
000006EAA95000
0004CFE759FB00
002FEFA000AF60
00196F60007F90
00009F10009F70
0000DC0000EF20
0002F70007F900
0006F3003FC100
000BE477EB1000
000EEFFEE80000
004F88613F8000
008F30000AF200
00CE000009F600
02FB00000BF600
06F800002FF200
0AF50000BF9000
0EF2001BFC1000
1FF769EF800000
038AA961000000
ENDCHAR
STARTCHAR C
ENCODING 67
SWIDTH 548 0
DWIDTH 11 0
BBX 12 19 0 -4
BITMAP
0000016AB600
00004DD66F70
0004FC100CD0
002EE2000DF1
00AF70001FF0
02FE00008FC0
09F70001EF40
1EF200002300
4FD000000000
8F9000000000
BF6000000000
DF4000000000
FF3000000000
FF2000000000
DF3000009000
9F6000088000
2FD2019C0000
06FFDFB10000
003895000000
ENDCHAR
STARTCHAR D
ENCODING 68
SWIDTH 632 0
DWIDTH 13 0
BBX 12 19 0 -4
BITMAP
00027AA72000
007FFDCFF700
00C92001AF70
002283000CF2
000DF30006F8
000FF10003FB
002FC00002FD
004F900002FE
007F600004FD
00AF200007FB
00EE00000BF6
02FA00001FE1
06F500007F90
0AF10001EE20
0EC00009F600
4F80007F9000
AF3019F90000
CFCAEE600000
059951000000
ENDCHAR
STARTCHAR E
ENCODING 69
SWIDTH 523 0
DWIDTH 10 0
BBX 12 19 -1 -4
BITMAP
00000038A940
00001BF945F5
0002DE3000DB
000BF60001EA
003FE00007F6
007FB0006FD1
007FA0001520
003FE0000000
0007F9110000
0002CFFF1000
006F93540000
07F700000000
2ED000000000
7F9000000710
9F8000002C00
7FC00001C500
2EF8002CA000
04EFEDF90000
001798400000
ENDCHAR
STARTCHAR F
ENCODING 70
SWIDTH 585 0
DWIDTH 12 0
BBX 12 19 0 -4
BITMAP
0001479AA840
018EEA878DF5
0BF7000003F7
2FF3000005F4
1DFFB0000BC0
017910003F50
00000000BC00
00000003F600
006ABCDEFB80
01EC979FA730
001000AF2000
000003FB0000
00000AF50000
00001FE00000
00006F900000
0000BF600000
0000EF400000
0002FF300000
000196100000
ENDCHAR
STARTCHAR G
ENCODING 71
SWIDTH 612 0
DWIDTH 12 0
BBX 12 19 0 -4
BITMAP
00000038B910
000008F95DA0
00009F5008E0
0007F80008F2
002FE1000CF1
009F70007FC0
02FF1001EF60
08FA00002600
0DF500000000
3FF100000000
6FD008BDEFF5
8FA00777AF80
AF8000009E00
AF600000E900
9F600007F200
5F80001E9000
1EC000BC1000
05F95CD20000
004AB8100000
ENDCHAR
STARTCHAR H
ENCODING 72
SWIDTH 649 0
DWIDTH 13 0
BBX 15 19 -1 -4
BITMAP
0000036000002410
00003FB00002FE00
00007F700006F900
0000BF20000AF300
0000ED00000ED000
0003F900003F9000
0006F500007F4000
000AF10000BE0000
000DC12355EC2000
006FFFFEFFFFF200
01BF87E707F86000
009F202E4AD00000
00CE0006BE900000
01FB0001EF600000
05F90000CF300000
08F60000CF000000
0CF30000ED000000
0FF10001FB000000
1A70000153000000
ENDCHAR
STARTCHAR I
ENCODING 73
SWIDTH 537 0
DWIDTH 11 0
BBX 13 19 -2 -4
BITMAP
00000000179300
00000002DDCA00
0000001DE2BB00
0000008F70DA00
000000DF21F900
000000FD04F700
000000FA07F400
000000E90BF100
000000AB0FD000
0000004B4F9000
000000029F7200
00059DFFFFCB40
03CFC733F90000
1EF50006F40000
6F90000BC00000
6FA0002F500000
1DF300AB000000
03EE89D2000000
00179810000000
ENDCHAR
STARTCHAR J
ENCODING 74
SWIDTH 500 0
DWIDTH 10 0
BBX 14 19 -2 -4
BITMAP
00000026899863
000000BFDDFEEB
0000002106F500
000000000AF200
000000000ED000
000000003FA000
000000007F7000
00000000BF3000
00000000EF0000
00036003FC0000
005FF407F80000
03FF820BF40000
0BF5001FE10000
3F90005FA00000
7F2000AF300000
9F0002FB000000
8F0009E2000000
2E718F50000000
02ACA300000000
ENDCHAR
STARTCHAR K
ENCODING 75
SWIDTH 497 0
DWIDTH 10 0
BBX 12 21 -1 -6
BITMAP
000028400165
0000BF3003FB
0001FC0006F9
0005F7000AF4
000AF2003FD0
000ED000BF40
003F8007F900
007F404F9000
00AE05F80000
00ED9D500000
06FFFCC80000
08F612BF7000
09F2004F9000
0DE0005F7000
1FC000AF3000
5F9001FC0000
8F7006F70000
CF7008F40000
861006F70000
000000AFA960
000000047500
ENDCHAR
STARTCHAR L
ENCODING 76
SWIDTH 492 0
DWIDTH 10 0
BBX 13 19 -2 -4
BITMAP
00000000038920
000000004FFF80
00000001DD1E90
00000007F63F60
0000000BF2CC00
0000000FECE300
0021005FFE3000
003EEFFF910000
000155CF200000
000000DD000000
000002F9000000
000006F5000000
00000BE0000000
00002F80000000
00008E20000000
3CFEE800000000
DD7EFE71007100
CEE92BFECED000
1310005BDD3000
ENDCHAR
STARTCHAR M
ENCODING 77
SWIDTH 733 0
DWIDTH 15 0
BBX 17 19 -2 -4
BITMAP
000000027100002720
0000001FF40003FF60
0000007FF5000BEF40
000000DBF5003FAF20
000003F6F500AD8E00
000008F4F502F6CA00
00000DC4F309D1F700
00002F96F21E74F400
00007F57F17E18F100
0000AF18F0D80BC000
0490ED09E4F20F9000
1D42F90AFAB04F6000
6D05F609FF507F4000
B809F208FF10AF1000
E60DE005FD00EE0000
E62FA001B601FE0000
D99F60000003FF0000
8FFE10000001EF6000
079300000000498100
ENDCHAR
STARTCHAR N
ENCODING 78
SWIDTH 541 0
DWIDTH 11 0
BBX 14 19 -1 -4
BITMAP
000043000018A2
0005FB0000CFD8
0009FD0005F769
000CFE000AE1A6
001FCF000EB5E1
004F7F113FCE40
008D4F13CFB300
00BA3F108F1000
01F72F20AE0000
04F41F20CB0000
08F11F30E90000
0CD00F42F60000
1FA00E66F30000
4F800D89F00000
7F700BACC00000
AF6009EF800000
CF6005FF400000
BF8001FF100000
37300054000000
ENDCHAR
STARTCHAR O
ENCODING 79
SWIDTH 567 0
DWIDTH 11 0
BBX 11 19 0 -4
BITMAP
000008D97000
0000BFE9F700
0009F640CD00
004F90009F20
00CF20007F30
03F900006F50
09F300006F50
0EE000007F40
3FA000009F30
7F700000AF10
9F400000DE00
BF300002FA00
CF200006F500
CF10000CE100
BF20003F8000
9F3000BE1000
4F7007F50000
0AE6AF700000
008CA3000000
ENDCHAR
STARTCHAR P
ENCODING 80
SWIDTH 552 0
DWIDTH 11 0
BBX 13 19 -1 -4
BITMAP
0000048ABA5000
0006DF845CF700
00AFCF2001DE10
00B68D00009F40
0000CA00009F50
0001F60000CF30
0005F20001FD00
0009E00009F500
000DB0006FA000
002F8008FA0000
006F88DE600000
00AFB850000000
00DE0000000000
02FB0000000000
06F80000000000
0BF40000000000
2FE10000000000
AF900000000000
36100000000000
ENDCHAR
STARTCHAR Q
ENCODING 81
SWIDTH 583 0
DWIDTH 12 0
BBX 11 19 0 -4
BITMAP
0000049B8100
0000AFA7DB00
000AF7004F50
006FA0000EA0
01EE10000CD0
07F800000BE0
0CF200000DD0
2FD000000FB0
5FA000003F90
7F8000007F60
7F700000CF10
4F900003FB00
0DE30009F500
02BB102FC000
002651BF4000
07FDCFF80000
2FA06FFA0000
2FDCF93DC300
049930006A60
ENDCHAR
STARTCHAR R
ENCODING 82
SWIDTH 560 0
DWIDTH 11 0
BBX 13 20 -1 -5
BITMAP
0000048ABA6000
0006DF945BF900
009FCF4000CF30
00986F00007F60
0000AC00007F70
0000D800009F50
0002F50000DF10
0006F20007F800
000AE0004EC100
007EE816EC2000
01FFCEFE810000
009FC9D9000000
00AF307E000000
00EF004F300000
02FC003F600000
06F8002F900000
0CF4001FB00000
6FD0000FD00000
1620000BFC8000
00000003BB2000
ENDCHAR
STARTCHAR S
ENCODING 83
SWIDTH 474 0
DWIDTH 10 0
BBX 11 19 -1 -4
BITMAP
000005ACB700
0001BFA46F70
000AF6000DC0
003F90000DC0
008F50002FA0
007F60009E40
003FD0001000
000CFA000000
0002EF800000
00004FF40000
000007FB0000
000000EF0000
0000009F1000
1650007F1000
BF40007D0000
DF3000D80000
AF8007E20000
3FF9AF500000
03AC93000000
ENDCHAR
STARTCHAR T
ENCODING 84
SWIDTH 423 0
DWIDTH 8 0
BBX 11 19 0 -4
BITMAP
014567776530
3FFFFFFEEE90
4A744FB00000
00006F600000
0000AF200000
0000DD000000
0002F9000000
0006F5000000
0009F1000000
000DC0000000
001F90000000
005F60000000
008F30000000
00CF00000000
01FD00000000
04FA00000000
07F700000000
0BF500000000
077100000000
ENDCHAR
STARTCHAR U
ENCODING 85
SWIDTH 574 0
DWIDTH 11 0
BBX 13 19 0 -4
BITMAP
00003300004710
000BF70003FE10
002FF10007FA00
007FB0000BF500
00BF60001FE100
01FF10004FA000
04FB00008F6000
08F70000BF2000
0BF20000FC0000
0ED00003F80000
3F900007F50000
5F60000AF10000
8F30000EE00000
AF10005FC00000
BF0000BFA00000
BF1004FF900000
AF602E8F900000
4FFCE90DC00000
04994003600000
ENDCHAR
STARTCHAR V
ENCODING 86
SWIDTH 503 0
DWIDTH 10 0
BBX 12 19 0 -4
BITMAP
002630000450
00CF40000DF3
01FD00005FA0
04F80000BF30
07F40002FB00
0AF10007F600
0CD0000CF100
0EB0002FB000
0F90007F5000
1F8000CF1000
1F8001FA0000
1F8006F50000
0E800BE10000
0D901F800000
0BB05F200000
08D0AB000000
04F5F3000000
00EFA0000000
004B20000000
ENDCHAR
STARTCHAR W
ENCODING 87
SWIDTH 817 0
DWIDTH 16 0
BBX 16 19 0 -4
BITMAP
000265000000019B
000CF400181003FF
003FB0009F2001FF
009F4002FF0000FE
00ED0006FC0001FC
03F80008F90002FA
08F3000AF50003F8
0CE0000BF10006F5
0FA0000BC00009F1
3F70001FA0000CC0
5F40006F80001F90
6F2000BF70006F40
7F0002FF6000BD00
7F0008DD6001F700
6F001E7D7007E100
5F208E1B901E8000
1F84F509D1AD1000
0BFFA005FFE30000
01A800008B300000
ENDCHAR
STARTCHAR X
ENCODING 88
SWIDTH 579 0
DWIDTH 12 0
BBX 15 19 -1 -4
BITMAP
0019C60000005810
00AAAF200007FE50
02F21F70005FD200
04F20CB002EE2000
02FB4CE00BF40000
00AFFCF16F700000
000545F4EC000000
000003FEE2000000
000001FF70000000
000001FC00000000
00000AF900000000
00005FFA00000000
0001ECAC00000000
000AF38E00000000
005F806F20000000
01EE103F60002000
0BF5000EC0058000
AFB00007FBBB0000
1400000079500000
ENDCHAR
STARTCHAR Y
ENCODING 89
SWIDTH 532 0
DWIDTH 11 0
BBX 12 19 0 -4
BITMAP
000681000493
005FC0000DF2
009F60002FD0
00DF10005F80
02FB00008F40
06F60000CE00
0AF20001FB00
0DD00005F700
1FA0000BF400
3F70003FE000
5F6000CEB000
4FA01ABC7000
0DFEFA2F4000
0167306E0000
000000D90000
040006F30000
7F827F800000
BFFFF9000000
179830000000
ENDCHAR
STARTCHAR Z
ENCODING 90
SWIDTH 455 0
DWIDTH 9 0
BBX 12 19 -2 -4
BITMAP
000036788764
0003FFFFFFFD
0005B63100FD
0000000006F8
000000001EE2
00000000AF70
00000006FB00
0000003FD100
000001DE3000
00000BF50000
00009F700000
0006FA000000
002FC1000000
00CE20000000
06F500000000
1EB000000000
7F99CDDDB400
7FFFFFFFD100
273101252000
ENDCHAR
STARTCHAR bracketleft
ENCODING 91
SWIDTH 202 0
DWIDTH 4 0
BBX 7 20 -1 -3
BITMAP
00003980
0000CFA0
0002F500
0007E000
000BA000
000E6000
004F1000
008D0000
00C90000
01F50000
04F10000
08D00000
0B900000
0E600000
3F200000
6E000000
9C000000
CC000000
DFD00000
23200000
ENDCHAR
STARTCHAR backslash
ENCODING 92
SWIDTH 273 0
DWIDTH 5 0
BBX 5 16 0 -1
BITMAP
193000
2F6000
0F8000
0DA000
0AB000
08D000
06F000
04F200
01F400
00E700
00CA00
00AD00
007F10
005F50
003F80
000410
ENDCHAR
STARTCHAR bracketright
ENCODING 93
SWIDTH 216 0
DWIDTH 4 0
BBX 7 20 -2 -3
BITMAP
00006860
00009ED0
00000AB0
00000C80
00000F50
00003F20
00006D00
0000AA00
0000D700
0002F300
0006E000
0009B000
000D7000
002F3000
007E0000
00BA0000
01F60000
29F10000
DFB00000
44000000
ENDCHAR
STARTCHAR asciicircum
ENCODING 94
SWIDTH 287 0
DWIDTH 6 0
BBX 8 8 -1 7
BITMAP
00002730
0001DF90
0008EAB0
002F68C0
00AC07E0
04F306F1
0D9005F3
3A1003B3
ENDCHAR
STARTCHAR underscore
ENCODING 95
SWIDTH 439 0
DWIDTH 9 0
BBX 11 3 -3 -1
BITMAP
035677776520
2FFFFFFFFFD0
032110001220
ENDCHAR
STARTCHAR grave
ENCODING 96
SWIDTH 567 0
DWIDTH 11 0
BBX 4 3 5 11
BITMAP
6700
8FB1
02A7
ENDCHAR
STARTCHAR a
ENCODING 97
SWIDTH 435 0
DWIDTH 9 0
BBX 12 10 -1 -1
BITMAP
000002000000
0004DF900000
004F5BC20000
02E802F40000
09E105F10063
1EA009D003A0
3F802E902C10
4FB5DC81C300
1EFD46FE5000
013000310000
ENDCHAR
STARTCHAR b
ENCODING 98
SWIDTH 415 0
DWIDTH 8 0
BBX 11 16 0 -1
BITMAP
000010000000
000CD0000000
005FB0000000
00BF80000000
02FF40000000
07FE00000000
0CFA00000000
1FF402000000
4FD09F402720
7F60AFDDB500
9D001F710000
A9005F200000
A900C9000000
8B08D1000000
3FED20000000
024000000000
ENDCHAR
STARTCHAR c
ENCODING 99
SWIDTH 363 0
DWIDTH 7 0
BBX 10 10 -1 -1
BITMAP
0000230000
002BEE6000
01DD3C9000
07F25F4000
0DA0020019
2F600000A3
2F60000A60
0EA002C700
06FDBD5000
0037610000
ENDCHAR
STARTCHAR d
ENCODING 100
SWIDTH 483 0
DWIDTH 10 0
BBX 13 15 -1 -1
BITMAP
000000005E4000
00000000BF6000
00000000EF5000
00000004FF2000
00000008FD0000
0000000CF90000
0007DC2FF30000
009D26CFB00000
04F302FF400000
0BA000BA000630
1F5001E3005900
3F300BF004B000
2F82BBE05C1000
0AFE52FDB10000
00300044000000
ENDCHAR
STARTCHAR e
ENCODING 101
SWIDTH 372 0
DWIDTH 7 0
BBX 10 10 -1 -1
BITMAP
0000120000
0006EF9000
007D2CA000
03F43E3000
0BD4E50007
0FED300086
1FB1000890
0DD102B800
05FECD5000
0026510000
ENDCHAR
STARTCHAR f
ENCODING 102
SWIDTH 325 0
DWIDTH 7 0
BBX 11 24 -2 -10
BITMAP
00003CC00000
00003FD00000
00003FB00000
00004F700000
00007F300000
0000AD000000
0000E8000000
0003F4000000
0008E47ABA40
003EFB620000
00EF40000000
00DF10000000
00BFC1000000
00F7CB000000
04F22F500000
08D00BB00000
0CA009D00000
1F600AC00000
4F301E700000
7E008F100000
BC05F7000000
DDAFB0000000
BFFA10000000
153000000000
ENDCHAR
STARTCHAR g
ENCODING 103
SWIDTH 459 0
DWIDTH 9 0
BBX 12 18 -1 -10
BITMAP
0009FD255000
00AD27AF5000
03F303FF1000
0AC000DC0015
0E9000D901B3
0F8005F51C50
0DC25DF6D400
06FFB8FC2000
00334EB00000
0006EF700000
008E6F300000
07E37F000000
1F70BC000000
4F30E8000000
4F24F4000000
1F5AE0000000
09FF80000000
019A10000000
ENDCHAR
STARTCHAR h
ENCODING 104
SWIDTH 465 0
DWIDTH 9 0
BBX 12 15 -1 -1
BITMAP
0003A5000000
0007F8000000
0009F4000000
000CE0000000
001FA0000000
004F60000000
007F26B80000
00BCACEF0000
00EE60AF0000
03F800DB0004
06F102F60095
0AD007E10970
0EA00AD4B600
2F7008FE4000
041000510000
ENDCHAR
STARTCHAR i
ENCODING 105
SWIDTH 274 0
DWIDTH 5 0
BBX 7 14 0 -1
BITMAP
001A3000
006F4000
00140000
00000000
00000000
03A30000
0CE10000
2FA00000
5F500090
7F100970
9C008900
8C1AB000
3EF90000
01200000
ENDCHAR
STARTCHAR j
ENCODING 106
SWIDTH 267 0
DWIDTH 5 0
BBX 12 22 -5 -9
BITMAP
00000000B900
00000004F600
000000003000
000000000000
000000000000
000000392000
0000009F2000
000000DD0000
000002F8001A
000006F401B5
00000AF01C60
00000DB3C500
00001FDD4000
00005FA10000
0005FF200000
005EDD000000
02E6EA000000
0BB2F5000000
2F56F1000000
2F2BB0000000
0D7F50000000
03C900000000
ENDCHAR
STARTCHAR k
ENCODING 107
SWIDTH 440 0
DWIDTH 9 0
BBX 12 15 -1 -1
BITMAP
0006D6000000
0009F5000000
000BF2000000
000DC0000000
001F80000000
004F30000000
008D08D80000
00B8BAEC0000
00FD50C70000
04F659800041
08B7FF6003B0
0C712C801C20
1F401F52C400
5F102FEE5000
140006820000
ENDCHAR
STARTCHAR l
ENCODING 108
SWIDTH 218 0
DWIDTH 4 0
BBX 6 15 -1 -1
BITMAP
0004A4
0009F6
000AF3
000DE0
002FA0
005F60
009F20
00CD00
01F900
05F600
08F200
0CD000
1F9000
3F5000
051000
ENDCHAR
STARTCHAR m
ENCODING 109
SWIDTH 717 0
DWIDTH 14 0
BBX 17 9 -1 -1
BITMAP
001401880069200000
00AF4DFF3AFFA00000
00DEC36FC82FB00000
02FF307F903F800090
05F900AE107F500950
09F300E900AF106A00
0CE004F400DE06C100
1FA008F100CFDB1000
050002200027400000
ENDCHAR
STARTCHAR n
ENCODING 110
SWIDTH 461 0
DWIDTH 9 0
BBX 12 9 -1 -1
BITMAP
003716B50000
00CEACFD0000
01FF80CD0000
04FA00EB0017
07F203F700A3
0BD007F30870
0E900AE08A00
3F500AFDA000
230001640000
ENDCHAR
STARTCHAR o
ENCODING 111
SWIDTH 393 0
DWIDTH 8 0
BBX 11 9 -1 -1
BITMAP
002BD9000000
00CD4B900040
07F706E01960
0DFA06F7C400
1F7EDEE81000
1F415F800000
0E607E200000
08ECE5000000
004510000000
ENDCHAR
STARTCHAR p
ENCODING 112
SWIDTH 451 0
DWIDTH 9 0
BBX 13 17 -2 -9
BITMAP
0007905A500000
000BF9CDE00000
000DF805F10000
001FA007E00240
005F200DA01B10
009D207F31B400
00CFFAF93C6000
01FDFFFEE50000
05F38624100000
09E00000000000
0CB00000000000
1F800000000000
5F500000000000
9F200000000000
DE000000000000
FB000000000000
43000000000000
ENDCHAR
STARTCHAR q
ENCODING 113
SWIDTH 462 0
DWIDTH 9 0
BBX 11 17 -1 -9
BITMAP
0004AA277000
006E47BF8000
02F602FF4000
0AF100AE0000
0EB000DB0000
1F9003F70090
0FA00CF30950
09F9BBE07800
00793AB7A000
00000EDB0000
00003FB00000
00007F100000
0001EC000000
0007FB000000
0009FA000000
0007FA000000
0001BA000000
ENDCHAR
STARTCHAR r
ENCODING 114
SWIDTH 406 0
DWIDTH 8 0
BBX 12 11 -2 -1
BITMAP
000021000000
0003FB000000
000BFB000000
000BFDB60000
000D97CE0000
006D10CD0026
00D505F500B2
06B00DA00A60
0D204F409900
57003FCD9000
100005940000
ENDCHAR
STARTCHAR s
ENCODING 115
SWIDTH 351 0
DWIDTH 7 0
BBX 6 10 0 -1
BITMAP
003B60
02EF50
04FE00
08BF30
3B0DA0
8108F2
0402F7
5F40F4
3FDB80
049500
ENDCHAR
STARTCHAR t
ENCODING 116
SWIDTH 301 0
DWIDTH 6 0
BBX 11 15 -2 -1
BITMAP
000009900000
00003FC00000
00007FB31000
3DCDFFFFFD30
0466FF302410
0004FD000000
0007F8000000
000AF3000000
000DC0000000
001F60003800
003E1001B100
005B001C4000
005D12C60000
001EEE600000
000263000000
ENDCHAR
STARTCHAR u
ENCODING 117
SWIDTH 468 0
DWIDTH 9 0
BBX 11 9 0 -1
BITMAP
037002810000
1EB00AF20000
6F501FE00000
AF104FB000A0
DB006F500850
E9007E006900
EB03EF26B000
6FFE5DFA1000
024101300000
ENDCHAR
STARTCHAR v
ENCODING 118
SWIDTH 427 0
DWIDTH 9 0
BBX 11 9 0 -1
BITMAP
183002B50000
8F300CF50000
BF002FD00350
CD003F96A800
CC009C973000
AD04E1000000
7F5E40000000
2FF600000000
044000000000
ENDCHAR
STARTCHAR w
ENCODING 119
SWIDTH 646 0
DWIDTH 13 0
BBX 15 9 0 -1
BITMAP
068008E003A10000
2F901FD00DF10000
6F504F701FD00160
9F105F201FC57B20
BD006A005FB95000
CA00A900AC000000
BA05AD04F3000000
6FCB0ADE60000000
0550004200000000
ENDCHAR
STARTCHAR x
ENCODING 120
SWIDTH 399 0
DWIDTH 8 0
BBX 10 10 -1 -1
BITMAP
0010000000
04F6009D30
00DC08F800
007F7F9000
002FFA0000
003FC00002
02DEE00077
1CC3F62A90
BC10BFF800
5100152000
ENDCHAR
STARTCHAR y
ENCODING 121
SWIDTH 406 0
DWIDTH 8 0
BBX 9 17 -1 -9
BITMAP
0295005910
04F9009F30
07F400BE00
0BE001F900
1F9008F400
3F603FF100
4F62DEC000
1EFFAD8000
02752F4000
00006F1000
00009D0000
0000DA0000
0002F70000
0006F40000
000AF10000
000DD00000
0003400000
ENDCHAR
STARTCHAR z
ENCODING 122
SWIDTH 448 0
DWIDTH 9 0
BBX 12 17 -1 -9
BITMAP
0005BDEE8000
000EC86F7000
0002005E1000
000001E70000
00000AC00052
00009F840590
0007FCAD8A00
0004907F7000
00005DEC0000
001AC3D80000
01BB14F30000
09D10BD00000
3F403F600000
8D00BD100000
9D07F5000000
7FCF90000000
08A600000000
ENDCHAR
STARTCHAR braceleft
ENCODING 123
SWIDTH 243 0
DWIDTH 5 0
BBX 8 20 -1 -3
BITMAP
00000275
00005FF4
0002FD60
0006F200
0007D000
0006E000
0006E000
0009C000
015E5000
06F50000
01B80000
008B0000
00B80000
04F20000
0C900000
3F300000
5F500000
3FF60000
07F60000
00310000
ENDCHAR
STARTCHAR bar
ENCODING 124
SWIDTH 253 0
DWIDTH 5 0
BBX 5 16 0 -1
BITMAP
0003A0
000CB0
001F70
004F30
008E00
00BA00
00E600
03F200
07E000
0BB000
0E8000
3F5000
6F2000
AF0000
DD0000
410000
ENDCHAR
STARTCHAR braceright
ENCODING 125
SWIDTH 243 0
DWIDTH 5 0
BBX 7 20 -2 -3
BITMAP
00005400
0000CF60
00008FE0
000009F0
000009B0
00002E50
00009C00
0000E500
0001F200
0000CA00
0002CE10
000C9000
003F3000
005F0000
004F1000
004F2000
009F0000
4CF90000
BFA10000
52000000
ENDCHAR
STARTCHAR asciitilde
ENCODING 126
SWIDTH 329 0
DWIDTH 7 0
BBX 8 3 -1 6
BITMAP
00110002
3DFFC89D
6B559CC5
ENDCHAR
STARTCHAR uni00A0
ENCODING 160
SWIDTH 280 0
DWIDTH 6 0
BBX 1 1 0 0
BITMAP
00
ENDCHAR
STARTCHAR exclamdown
ENCODING 161
SWIDTH 249 0
DWIDTH 5 0
BBX 7 16 -1 -1
BITMAP
00005A20
0003FE30
00003100
00007200
0007F100
000BD000
001FA000
004F6000
008F3000
00DE0000
02FB0000
06F80000
0AF40000
0EF10000
3FD00000
27200000
ENDCHAR
STARTCHAR cent
ENCODING 162
SWIDTH 322 0
DWIDTH 6 0
BBX 8 16 -1 -1
BITMAP
00000240
00000880
00003DA0
0007E5A7
005E32D9
01E70AF8
07E108D2
0C900000
0F600000
1F400000
0F400120
0B901A10
03ECC300
007C0000
00B60000
00200000
ENDCHAR
STARTCHAR sterling
ENCODING 163
SWIDTH 318 0
DWIDTH 6 0
BBX 8 13 -1 1
BITMAP
00001882
0003E77D
000B802F
002F24CC
005D07A2
009A0000
04D92200
1CFFF400
05E00000
0A900000
1F300000
AB7AAA10
CCA88900
ENDCHAR
STARTCHAR currency
ENCODING 164
SWIDTH 347 0
DWIDTH 7 0
BBX 9 8 -1 3
BITMAP
0071000600
00AB9AAB10
002F79C000
0059069000
00971C4000
05EEEE6000
1E4114E000
0000002000
ENDCHAR
STARTCHAR yen
ENCODING 165
SWIDTH 326 0
DWIDTH 7 0
BBX 8 13 0 1
BITMAP
00200001
09A0009B
08B003F3
06D00B80
02F16D10
00D9E300
008F4000
03AD5100
5BECB100
48FB6000
6AE74000
09B00000
09500000
ENDCHAR
STARTCHAR brokenbar
ENCODING 166
SWIDTH 253 0
DWIDTH 5 0
BBX 5 16 0 -1
BITMAP
0003A0
000CC0
001F70
004F30
008E00
00BA00
00B500
000000
035000
0AB000
0E8000
3F5000
6F2000
AF0000
DD0000
410000
ENDCHAR
STARTCHAR section
ENCODING 167
SWIDTH 297 0
DWIDTH 6 0
BBX 8 16 -1 -1
BITMAP
00007892
001C906C
007E008D
007D01A4
001D6000
0003E700
01AC7E30
0AC00B80
0C900D70
08D4BA00
008F5000
0006D100
3C30C800
8C00D800
4D29D100
02650000
ENDCHAR
STARTCHAR dieresis
ENCODING 168
SWIDTH 567 0
DWIDTH 11 0
BBX 6 3 4 11
BITMAP
010010
8F57F6
450350
ENDCHAR
STARTCHAR copyright
ENCODING 169
SWIDTH 456 0
DWIDTH 9 0
BBX 10 11 0 4
BITMAP
0001587300
003D944C70
03E41881D3
0D61D8B479
4E0990B25C
8A1F20005C
991E0040A9
7B0D6752F3
1E33841C70
04D856C700
0016862000
ENDCHAR
STARTCHAR ordfeminine
ENCODING 170
SWIDTH 373 0
DWIDTH 7 0
BBX 11 11 -2 -1
BITMAP
000028600000
0003DAE10000
001E62C80000
009C00D50000
01F602F20010
03F409E00A10
03FAAAD2A400
00BC60BB3000
001222210000
0CFFFFFB0000
185433310000
ENDCHAR
STARTCHAR guillemotleft
ENCODING 171
SWIDTH 346 0
DWIDTH 7 0
BBX 8 9 -1 -1
BITMAP
00057066
005D17D1
04E35E20
3E74F500
9E1BD000
2E63F400
07C09A00
00C41E20
00220210
ENDCHAR
STARTCHAR logicalnot
ENCODING 172
SWIDTH 512 0
DWIDTH 10 0
BBX 11 5 -1 3
BITMAP
08DEFFFFED90
1A8765556CB0
000000000D70
000000003F30
000000005700
ENDCHAR
STARTCHAR sfthyphen
ENCODING 173
SWIDTH 353 0
DWIDTH 7 0
BBX 8 2 -1 5
BITMAP
1BEEFFE9
39766552
ENDCHAR
STARTCHAR registered
ENCODING 174
SWIDTH 456 0
DWIDTH 9 0
BBX 10 11 0 4
BITMAP
0001587300
003D944C70
03E48A91D3
0D65E2B479
4E00C1D15C
8A07EC505C
99088C00A9
7B0D3973F3
1E45028C70
04D856C700
0016862000
ENDCHAR
STARTCHAR macron
ENCODING 175
SWIDTH 567 0
DWIDTH 11 0
BBX 6 3 4 11
BITMAP
001100
5FFFF2
354440
ENDCHAR
STARTCHAR degree
ENCODING 176
SWIDTH 144 0
DWIDTH 3 0
BBX 3 3 1 11
BITMAP
0530
A7D0
9C70
ENDCHAR
STARTCHAR twosuperior
ENCODING 178
SWIDTH 268 0
DWIDTH 5 0
BBX 7 10 0 5
BITMAP
0019C700
01E66F10
06F16F00
0140BA00
0005E100
003E4000
04E50000
3E520000
AFFFE000
36337000
ENDCHAR
STARTCHAR threesuperior
ENCODING 179
SWIDTH 262 0
DWIDTH 5 0
BBX 6 10 0 5
BITMAP
005BC5
05F56E
09D16E
0151D7
004DA0
0089E2
0000E5
5B03F1
6F8D70
069500
ENDCHAR
STARTCHAR acute
ENCODING 180
SWIDTH 567 0
DWIDTH 11 0
BBX 4 3 5 11
BITMAP
0054
19F7
BB40
ENDCHAR
STARTCHAR mu
ENCODING 181
SWIDTH 453 0
DWIDTH 9 0
BBX 12 12 -3 -4
BITMAP
000011002000
0005F305F200
000CC00CF000
002F701FC000
006F303F7006
009F004F1029
00DF43CF42C2
02FEFE58FE40
06F310002000
0AE000000000
0E9000000000
5B2000000000
ENDCHAR
STARTCHAR paragraph
ENCODING 182
SWIDTH 411 0
DWIDTH 8 0
BBX 10 16 0 -1
BITMAP
0000038180
0039CEEDFB
06FFFFBDB2
1FFFFF2C50
5FFFFE1F20
5FFFFA4E00
1DFFF77A00
02AEF3A700
0004E0D400
0007B1F100
000B84C000
000E489000
003F1B5000
008C1E2000
00D86B0000
0141200000
ENDCHAR
STARTCHAR periodcentered
ENCODING 183
SWIDTH 168 0
DWIDTH 3 0
BBX 3 3 0 5
BITMAP
2970
BF90
1200
ENDCHAR
STARTCHAR cedilla
ENCODING 184
SWIDTH 567 0
DWIDTH 11 0
BBX 4 5 5 -3
BITMAP
1C20
7D51
36E8
04E4
7820
ENDCHAR
STARTCHAR onesuperior
ENCODING 185
SWIDTH 150 0
DWIDTH 3 0
BBX 4 10 0 5
BITMAP
0057
03FA
00E6
01F2
04E0
08A0
0C60
1F30
5F20
1610
ENDCHAR
STARTCHAR ordmasculine
ENCODING 186
SWIDTH 319 0
DWIDTH 6 0
BBX 10 11 -2 -1
BITMAP
0000440000
000CDB9000
007F21F235
00DF30F9A0
02F7EBF800
02F12BC000
00E53E4000
006FE50000
0012220000
0DFFFF9000
2753321000
ENDCHAR
STARTCHAR guillemotright
ENCODING 187
SWIDTH 346 0
DWIDTH 7 0
BBX 8 9 -2 -1
BITMAP
00A11A00
00990B70
002F35E2
000BC0DA
000AE1BD
005E37E2
03E44E30
1D52D400
12022000
ENDCHAR
STARTCHAR onequarter
ENCODING 188
SWIDTH 579 0
DWIDTH 12 0
BBX 12 16 -1 -1
BITMAP
000580000048
002FB00004F4
000D70001D80
001F3000AC00
003E0005E200
007B002E5000
00B700BA02BA
01E406D11CF8
04F32E40ABC4
0161CA09C2F1
0007E17F79E2
003F506DADE5
00CB00000D80
08F200001F50
3F8000004F40
230000000400
ENDCHAR
STARTCHAR onehalf
ENCODING 189
SWIDTH 603 0
DWIDTH 12 0
BBX 13 16 -1 -1
BITMAP
00049000003900
001FC00003F600
000B80000DA000
000E50008D1000
002F1004F30000
005C001D700000
0099009B18CE40
00E505E29B0D80
02F41E60D80E70
0162AB00105E20
0006E20001D600
002E70001C9000
00BC0002D90000
06F4000DA54100
2EA0002FFFF700
23000004102200
ENDCHAR
STARTCHAR threequarters
ENCODING 190
SWIDTH 669 0
DWIDTH 13 0
BBX 13 16 0 -1
BITMAP
005BC500000670
05F56E00007E20
09D16E0003F500
0151D7000C9000
004DA0008D1000
0089E203F30000
0000E51D704C70
5B03F19C02EF50
6F8D74E21D8E10
06951E70BA4D00
0000AC09E6BC10
0005F308CAEE20
001E800001F500
00BD100004F300
06F5000007F100
03200000013000
ENDCHAR
STARTCHAR questiondown
ENCODING 191
SWIDTH 413 0
DWIDTH 8 0
BBX 10 16 -1 -1
BITMAP
00000008B4
0000003FF5
0000000210
0000001A60
0000008F30
000000CE00
000002FB00
0004CFD400
009F830000
0AF4000000
5F70000000
BE10008600
EB0000BF10
ED0004FC00
5FDABFB200
0279730000
ENDCHAR
STARTCHAR Agrave
ENCODING 192
SWIDTH 552 0
DWIDTH 11 0
BBX 13 24 -2 -5
BITMAP
00000000193000
000000002CF600
00000000005C20
00000000000000
0000000018A500
00000003EBBE00
0000002E807E00
000000BB009C00
000005F300C900
00000DC001F700
00004F6004F400
0000AE1007F200
0001FA000AE000
0006F5000DC000
000BF8887FB200
17CFFEEEFFF700
57AF80007F8000
00CF40008F3000
03FE0000BF1000
08FB0000DF0000
0EF60000EF0000
6FE10000EF2000
76100000CF8000
00000000561000
ENDCHAR
STARTCHAR Aacute
ENCODING 193
SWIDTH 552 0
DWIDTH 11 0
BBX 13 24 -2 -5
BITMAP
00000000001800
0000000003DE20
000000002E9200
00000000000000
0000000018A500
00000003EBBE00
0000002E807E00
000000BB009C00
000005F300C900
00000DC001F700
00004F6004F400
0000AE1007F200
0001FA000AE000
0006F5000DC000
000BF8887FB200
17CFFEEEFFF700
57AF80007F8000
00CF40008F3000
03FE0000BF1000
08FB0000DF0000
0EF60000EF0000
6FE10000EF2000
76100000CF8000
00000000561000
ENDCHAR
STARTCHAR Acircumflex
ENCODING 194
SWIDTH 552 0
DWIDTH 11 0
BBX 14 23 -2 -5
BITMAP
00000000019A00
000000002D9E70
00000001740481
0000000018A500
00000003EBBE00
0000002E807E00
000000BB009C00
000005F300C900
00000DC001F700
00004F6004F400
0000AE1007F200
0001FA000AE000
0006F5000DC000
000BF8887FB200
17CFFEEEFFF700
57AF80007F8000
00CF40008F3000
03FE0000BF1000
08FB0000DF0000
0EF60000EF0000
6FE10000EF2000
76100000CF8000
00000000561000
ENDCHAR
STARTCHAR Atilde
ENCODING 195
SWIDTH 552 0
DWIDTH 11 0
BBX 14 23 -2 -5
BITMAP
00000000021002
00000002EFFBBB
00000001602561
0000000018A500
00000003EBBE00
0000002E807E00
000000BB009C00
000005F300C900
00000DC001F700
00004F6004F400
0000AE1007F200
0001FA000AE000
0006F5000DC000
000BF8887FB200
17CFFEEEFFF700
57AF80007F8000
00CF40008F3000
03FE0000BF1000
08FB0000DF0000
0EF60000EF0000
6FE10000EF2000
76100000CF8000
00000000561000
ENDCHAR
STARTCHAR Adieresis
ENCODING 196
SWIDTH 552 0
DWIDTH 11 0
BBX 14 23 -2 -5
BITMAP
00000000010010
000000005F84F9
00000000361261
0000000018A500
00000003EBBE00
0000002E807E00
000000BB009C00
000005F300C900
00000DC001F700
00004F6004F400
0000AE1007F200
0001FA000AE000
0006F5000DC000
000BF8887FB200
17CFFEEEFFF700
57AF80007F8000
00CF40008F3000
03FE0000BF1000
08FB0000DF0000
0EF60000EF0000
6FE10000EF2000
76100000CF8000
00000000561000
ENDCHAR
STARTCHAR Aring
ENCODING 197
SWIDTH 552 0
DWIDTH 11 0
BBX 12 22 -2 -5
BITMAP
0000000004B8
000000000B6C
000000001AF6
00000003EBBE
0000002E807E
000000BB009C
000006F300C9
00000DC001F7
00004F6004F4
0000AE1007F2
0001FA000AE0
0006F5000DC0
000BF8887FB2
17CFFEEEFFF7
57AF80007F80
00CF40008F30
03FE0000BF10
08FB0000DF00
0EF60000EF00
6FE10000EF20
76100000CF80
000000005610
ENDCHAR
STARTCHAR AE
ENCODING 198
SWIDTH 869 0
DWIDTH 17 0
BBX 20 20 -2 -5
BITMAP
0000000018A50048A940
00000003EBBE2BF846F4
0000002E807FEE3000E9
000000BB009FF50001F9
000005F300CFD00008F5
00000DC001FFA0007FC0
00004F6004FFA0001510
0000AE1007FFD0000000
0001FA000AE8F8110000
0006F5000DC2CFFE0000
000BF8887FEF93630000
17CFFEEEFFF600000000
57AF80007FB000000000
00CF40008F7000000800
03FE0000BF7000003B00
08FB0000DFB00001C300
0EF60000EFF7003C8000
6FE10000EFFFEDF80000
76100000CFA798300000
00000000561000000000
ENDCHAR
STARTCHAR Ccedilla
ENCODING 199
SWIDTH 548 0
DWIDTH 11 0
BBX 12 23 0 -8
BITMAP
0000016AB600
00004DD66F70
0004FC100CD0
002EE2000DF1
00AF70001FF0
02FE00008FC0
09F70001EF40
1EF200002300
4FD000000000
8F9000000000
BF6000000000
DF4000000000
FF3000000000
FF2000000000
DF3000009000
8F6000088000
2ED2019C1000
05FFDFB10000
003EB5000000
003F51000000
0027DB000000
0002C8000000
005A50000000
ENDCHAR
STARTCHAR Egrave
ENCODING 200
SWIDTH 523 0
DWIDTH 10 0
BBX 12 23 -1 -4
BITMAP
000000067000
00000008FB10
000000002A70
000000000000
00000038A940
00001BF945F5
0002DE3000DB
000BF60001EA
003FE00007F6
007FB0006FD1
007FA0001520
003FE0000000
0007F9110000
0002CFFF1000
006F93540000
07F700000000
2ED000000000
7F9000000710
9F8000002C00
7FC00001C500
2EF8002CA000
04EFEDF90000
001798400000
ENDCHAR
STARTCHAR Eacute
ENCODING 201
SWIDTH 523 0
DWIDTH 10 0
BBX 12 23 -1 -4
BITMAP
000000000270
000000005ED0
00000005D710
000000000000
00000038A940
00001BF945F5
0002DE3000DB
000BF60001EA
003FE00007F6
007FB0006FD1
007FA0001520
003FE0000000
0007F9110000
0002CFFF1000
006F93540000
07F700000000
2ED000000000
7F9000000710
9F8000002C00
7FC00001C500
2EF8002CA000
04EFEDF90000
001798400000
ENDCHAR
STARTCHAR Ecircumflex
ENCODING 202
SWIDTH 523 0
DWIDTH 10 0
BBX 12 23 -1 -4
BITMAP
000000002A80
00000004E8F4
000000283067
000000000000
00000038A940
00001BF945F5
0002DE3000DB
000BF60001EA
003FE00007F6
007FB0006FD1
007FA0001520
003FE0000000
0007F9110000
0002CFFF1000
006F93540000
07F700000000
2ED000000000
7F9000000710
9F8000002C00
7FC00001C500
2EF8002CA000
04EFEDF90000
001798400000
ENDCHAR
STARTCHAR Edieresis
ENCODING 203
SWIDTH 523 0
DWIDTH 10 0
BBX 13 22 -1 -4
BITMAP
00000000100100
0000001DE0DF10
00000016205300
00000038A94000
00001BF945F500
0002DE3000DB00
000BF60001EA00
003FE00007F600
007FB0006FD100
007FA000152000
003FE000000000
0007F911000000
0002CFFF100000
006F9354000000
07F70000000000
2ED00000000000
7F900000071000
9F8000002C0000
7FC00001C50000
2EF8002CA00000
04EFEDF9000000
00179840000000
ENDCHAR
STARTCHAR Igrave
ENCODING 204
SWIDTH 537 0
DWIDTH 11 0
BBX 13 23 -2 -4
BITMAP
00000000292000
000000004DE400
00000000007C00
00000000000000
00000000179300
00000002DDCA00
0000001DE2BB00
0000008F70DA00
000000DF21F900
000000FD04F700
000000FA07F400
000000E90BF100
000000AB0FD000
0000004B4F9000
000000029F7200
00059DFFFFCB40
03CFC733F90000
1EF50006F40000
6F90000BC00000
6FA0002F500000
1DF300AB000000
03EE89D2000000
00179810000000
ENDCHAR
STARTCHAR Iacute
ENCODING 205
SWIDTH 537 0
DWIDTH 11 0
BBX 13 23 -2 -4
BITMAP
00000000000540
00000000019F70
000000000BB400
00000000000000
00000000179300
00000002DDCA00
0000001DE2BB00
0000008F70DA00
000000DF21F900
000000FD04F700
000000FA07F400
000000E90BF100
000000AB0FD000
0000004B4F9000
000000029F7200
00059DFFFFCB40
03CFC733F90000
1EF50006F40000
6F90000BC00000
6FA0002F500000
1DF300AB000000
03EE89D2000000
00179810000000
ENDCHAR
STARTCHAR Icircumflex
ENCODING 206
SWIDTH 537 0
DWIDTH 11 0
BBX 14 22 -2 -4
BITMAP
00000000004B60
0000000006D9E2
00000000382076
00000000179300
00000002DDCA00
0000001DE2BB00
0000008F70DA00
000000DF21F900
000000FD04F700
000000FA07F400
000000E90BF100
000000AB0FD000
0000004B4F9000
000000029F7200
00059DFFFFCB40
03CFC733F90000
1EF50006F40000
6F90000BC00000
6FA0002F500000
1DF300AB000000
03EE89D2000000
00179810000000
ENDCHAR
STARTCHAR Idieresis
ENCODING 207
SWIDTH 537 0
DWIDTH 11 0
BBX 14 22 -2 -4
BITMAP
00000000010010
000000005F84F9
00000000361261
00000000179300
00000002DDCA00
0000001DE2BB00
0000008F70DA00
000000DF21F900
000000FD04F700
000000FA07F400
000000E90BF100
000000AB0FD000
0000004B4F9000
000000029F7200
00059DFFFFCB40
03CFC733F90000
1EF50006F40000
6F90000BC00000
6FA0002F500000
1DF300AB000000
03EE89D2000000
00179810000000
ENDCHAR
STARTCHAR Eth
ENCODING 208
SWIDTH 632 0
DWIDTH 13 0
BBX 13 19 -1 -4
BITMAP
000027AA720000
0007FFDCFF7000
000C92001AF700
0002283000CF20
0000DF30006F80
0000FF10003FB0
0002FC00002FD0
0004F900002FE0
035AFA52004FD0
5FFFFEE6007FB0
331DE00000BF60
002FA00001FE10
006F500007F900
00AF10001EE200
00EC00009F6000
04F80007F90000
0AF3019F900000
0CFCAEE6000000
00599510000000
ENDCHAR
STARTCHAR Ntilde
ENCODING 209
SWIDTH 541 0
DWIDTH 11 0
BBX 14 22 -1 -4
BITMAP
00000012100200
000004EFFBC800
00000250266000
000043000018A2
0005FB0000CFD8
0009FD0005F769
000CFE000AE1A6
001FCF000EB5E1
004F7F113FCE40
008D4F13CFB300
00BA3F108F1000
01F72F20AE0000
04F41F20CB0000
08F11F30E90000
0CD00F42F60000
1FA00E66F30000
4F800D89F00000
7F700BACC00000
AF6009EF800000
CF6005FF400000
BF8001FF100000
37300054000000
ENDCHAR
STARTCHAR Ograve
ENCODING 210
SWIDTH 567 0
DWIDTH 11 0
BBX 11 23 0 -4
BITMAP
000000670000
0000008FB100
00000002A700
000000000000
000008D97000
0000BFE9F700
0009F640CD00
004F90009F20
00CF20007F30
03F900006F50
09F300006F50
0EE000007F40
3FA000009F30
7F700000AF10
9F400000DE00
BF300002FA00
CF200006F500
CF10000CE100
BF20003F8000
9F3000BE1000
4F7007F50000
0AE6AF700000
008CA3000000
ENDCHAR
STARTCHAR Oacute
ENCODING 211
SWIDTH 567 0
DWIDTH 11 0
BBX 11 23 0 -4
BITMAP
000000005400
00000019F700
000000BB4000
000000000000
000008D97000
0000BFE9F700
0009F640CD00
004F90009F20
00CF20007F30
03F900006F50
09F300006F50
0EE000007F40
3FA000009F30
7F700000AF10
9F400000DE00
BF300002FA00
CF200006F500
CF10000CE100
BF20003F8000
9F3000BE1000
4F7007F50000
0AE6AF700000
008CA3000000
ENDCHAR
STARTCHAR Ocircumflex
ENCODING 212
SWIDTH 567 0
DWIDTH 11 0
BBX 11 23 0 -4
BITMAP
00000008B200
000001BACA00
000006603920
000000000000
000008D97000
0000BFE9F700
0009F640CD00
004F90009F20
00CF20007F30
03F900006F50
09F300006F50
0EE000007F40
3FA000009F30
7F700000AF10
9F400000DE00
BF300002FA00
CF200006F500
CF10000CE100
BF20003F8000
9F3000BE1000
4F7007F50000
0AE6AF700000
008CA3000000
ENDCHAR
STARTCHAR Otilde
ENCODING 213
SWIDTH 567 0
DWIDTH 11 0
BBX 11 22 0 -4
BITMAP
000001210020
00004EFFBC80
000025026600
000008D97000
0000BFE9F700
0009F640CD00
004F90009F20
00CF20007F30
03F900006F50
09F300006F50
0EE000007F40
3FA000009F30
7F700000AF10
9F400000DE00
BF300002FA00
CF200006F500
CF10000CE100
BF20003F8000
9F3000BE1000
4F7007F50000
0AE6AF700000
008CA3000000
ENDCHAR
STARTCHAR Odieresis
ENCODING 214
SWIDTH 567 0
DWIDTH 11 0
BBX 11 22 0 -4
BITMAP
000000100100
000008F57F60
000004503500
000008D97000
0000BFE9F700
0009F640CD00
004F90009F20
00CF20007F30
03F900006F50
09F300006F50
0EE000007F40
3FA000009F30
7F700000AF10
9F400000DE00
BF300002FA00
CF200006F500
CF10000CE100
BF20003F8000
9F3000BE1000
4F7007F50000
0AE6AF700000
008CA3000000
ENDCHAR
STARTCHAR multiply
ENCODING 215
SWIDTH 281 0
DWIDTH 6 0
BBX 8 8 -1 3
BITMAP
00410020
02E808F3
008C6F40
004FF500
003F7000
02DD9000
1D75E100
4800A300
ENDCHAR
STARTCHAR Oslash
ENCODING 216
SWIDTH 597 0
DWIDTH 12 0
BBX 13 21 -1 -5
BITMAP
00000000000020
0000005CB85E90
000007FF9EFE10
00005F9509F600
0001ED001EF500
0008F5008FF700
001ED002FCF800
006F700AE4F900
00AF203F83F800
00ED00BD15F700
03FA05F507F500
05F80DC00AF300
07F66F400DE000
08F6EB003F9000
08FDF4008F4000
07FFB001EC0000
05FF4008F40000
04FD004F800000
0BFF88FA000000
4FB6BB50000000
12000000000000
ENDCHAR
STARTCHAR Ugrave
ENCODING 217
SWIDTH 574 0
DWIDTH 11 0
BBX 13 22 0 -4
BITMAP
00000067000000
0000008FB10000
00000002A70000
00003300004710
000BF70003FE10
002FF10007FA00
007FB0000BF500
00BF60001FE100
01FF10004FA000
04FB00008F6000
08F70000BF2000
0BF20000FC0000
0ED00003F80000
3F900007F50000
5F60000AF10000
8F30000EE00000
AF10005FC00000
BF0000BFA00000
BF1004FF900000
AF602E8F900000
4FFCE90DC00000
04994003600000
ENDCHAR
STARTCHAR Uacute
ENCODING 218
SWIDTH 574 0
DWIDTH 11 0
BBX 13 22 0 -4
BITMAP
00000000054000
000000019F7000
0000000BB40000
00003300004710
000BF70003FE10
002FF10007FA00
007FB0000BF500
00BF60001FE100
01FF10004FA000
04FB00008F6000
08F70000BF2000
0BF20000FC0000
0ED00003F80000
3F900007F50000
5F60000AF10000
8F30000EE00000
AF10005FC00000
BF0000BFA00000
BF1004FF900000
AF602E8F900000
4FFCE90DC00000
04994003600000
ENDCHAR
STARTCHAR Ucircumflex
ENCODING 219
SWIDTH 574 0
DWIDTH 11 0
BBX 13 22 0 -4
BITMAP
00000002A80000
0000004E8F4000
00000283067000
00003300004710
000BF70003FE10
002FF10007FA00
007FB0000BF500
00BF60001FE100
01FF10004FA000
04FB00008F6000
08F70000BF2000
0BF20000FC0000
0ED00003F80000
3F900007F50000
5F60000AF10000
8F30000EE00000
AF10005FC00000
BF0000BFA00000
BF1004FF900000
AF602E8F900000
4FFCE90DC00000
04994003600000
ENDCHAR
STARTCHAR Udieresis
ENCODING 220
SWIDTH 574 0
DWIDTH 11 0
BBX 13 22 0 -4
BITMAP
00000011001000
000003EB2EC000
00000261162000
00003300004710
000BF70003FE10
002FF10007FA00
007FB0000BF500
00BF60001FE100
01FF10004FA000
04FB00008F6000
08F70000BF2000
0BF20000FC0000
0ED00003F80000
3F900007F50000
5F60000AF10000
8F30000EE00000
AF10005FC00000
BF0000BFA00000
BF1004FF900000
AF602E8F900000
4FFCE90DC00000
04994003600000
ENDCHAR
STARTCHAR Yacute
ENCODING 221
SWIDTH 532 0
DWIDTH 11 0
BBX 12 22 0 -4
BITMAP
000000003500
00000007F900
0000008C6000
000681000493
005FC0000DF2
009F60002FD0
00DF10005F80
02FB00008F40
06F60000CE00
0AF20001FB00
0DD00005F700
1FA0000BF400
3F70003FE000
5F6000CEB000
4FA01ABC7000
0DFEFA2F4000
0167306E0000
000000D90000
040006F30000
7F827F800000
BFFFF9000000
179830000000
ENDCHAR
STARTCHAR Thorn
ENCODING 222
SWIDTH 569 0
DWIDTH 11 0
BBX 12 19 -1 -4
BITMAP
000016200000
0000CF100000
0001FC000000
0005F8132000
0008FEEDFE50
019FF3002DF3
07FFB00005F9
029F700002FB
008F300003FB
00BE000007F7
00EB00000DF2
03F800007F80
07F50007FA00
0AF203BF8000
0EFADE920000
2FC420000000
6F9000000000
9F7000000000
671000000000
ENDCHAR
STARTCHAR germandbls
ENCODING 223
SWIDTH 495 0
DWIDTH 10 0
BBX 12 24 -3 -10
BITMAP
000000002200
0000003DFF70
000001EC27F1
000008F209F1
00000EA01EA0
00004F507F20
00009E10D700
0000DA00E600
0002F5008D10
0006F1001EA0
074BB00007F5
029F700221EC
004FD60EA0A9
008D3E4CFAC1
00C908C19810
01F503F30000
04F201F50000
08D003F30000
0CA008E00000
1F602F800000
4F31CD100000
6FADE4000000
3FFD40000000
045100000000
ENDCHAR
STARTCHAR agrave
ENCODING 224
SWIDTH 435 0
DWIDTH 9 0
BBX 12 13 -1 -1
BITMAP
000292000000
0003DE400000
000006C00000
000002000000
0004DF900000
004F5BC20000
02E802F40000
09E105F10063
1EA009D003A0
3F802E902C10
4FB5DC81C300
1EFD46FE5000
013000310000
ENDCHAR
STARTCHAR aacute
ENCODING 225
SWIDTH 435 0
DWIDTH 9 0
BBX 12 13 -1 -1
BITMAP
000000720000
00002BF40000
0000DA300000
000002000000
0004DF900000
004F5BC20000
02E802F40000
09E105F10063
1EA009D003A0
3F802E902C10
4FB5DC81C300
1EFD46FE5000
013000310000
ENDCHAR
STARTCHAR acircumflex
ENCODING 226
SWIDTH 435 0
DWIDTH 9 0
BBX 12 13 -1 -1
BITMAP
000019A00000
0002D9E70000
001740481000
000002000000
0004DF900000
004F5BC20000
02E802F40000
09E105F10063
1EA009D003A0
3F802E902C10
4FB5DC81C300
1EFD46FE5000
013000310000
ENDCHAR
STARTCHAR atilde
ENCODING 227
SWIDTH 435 0
DWIDTH 9 0
BBX 12 13 -1 -1
BITMAP
000121002000
004EFFBC8000
002502661000
000002000000
0004DF900000
004F5BC20000
02E802F40000
09E105F10063
1EA009D003A0
3F802E902C10
4FB5DC81C300
1EFD46FE5000
013000310000
ENDCHAR
STARTCHAR adieresis
ENCODING 228
SWIDTH 435 0
DWIDTH 9 0
BBX 12 13 -1 -1
BITMAP
000010010000
0005F84F9000
000361261000
000002000000
0004DF900000
004F5BC20000
02E802F40000
09E105F10063
1EA009D003A0
3F802E902C10
4FB5DC81C300
1EFD46FE5000
013000310000
ENDCHAR
STARTCHAR aring
ENCODING 229
SWIDTH 435 0
DWIDTH 9 0
BBX 12 13 -1 -1
BITMAP
000015200000
0000B7C00000
00009C600000
000002000000
0004DF900000
004F5BC20000
02E802F40000
09E105F10063
1EA009D003A0
3F802E902C10
4FB5DC81C300
1EFD46FE5000
013000310000
ENDCHAR
STARTCHAR ae
ENCODING 230
SWIDTH 594 0
DWIDTH 12 0
BBX 15 10 -1 -1
BITMAP
0000030002100000
0004DF92CFE10000
004F5BCE66F10000
02E805FB0B900000
09E108F6AB100440
1EA00AFE70003B00
3F801DF30003C200
4FB5DBF5007C2000
1EFE51DFCD910000
0131001662000000
ENDCHAR
STARTCHAR ccedilla
ENCODING 231
SWIDTH 363 0
DWIDTH 7 0
BBX 10 14 -1 -5
BITMAP
0000230000
002BEE6000
01DD3C9000
07F25F4000
0DA0020019
2F600000A3
2F60000A60
0EA002C700
06FDBD5000
007E610000
00AC600000
0035F60000
0018D10000
0085000000
ENDCHAR
STARTCHAR egrave
ENCODING 232
SWIDTH 372 0
DWIDTH 7 0
BBX 10 13 -1 -1
BITMAP
0004810000
0005ED2000
000018A000
0000120000
0006EF9000
007D2CA000
03F43E3000
0BD4E50007
0FED300086
1FB1000890
0DD102B800
05FECD5000
0026510000
ENDCHAR
STARTCHAR eacute
ENCODING 233
SWIDTH 372 0
DWIDTH 7 0
BBX 10 13 -1 -1
BITMAP
0000018000
00003DE200
0002E92000
0000120000
0006EF9000
007D2CA000
03F43E3000
0BD4E50007
0FED300086
1FB1000890
0DD102B800
05FECD5000
0026510000
ENDCHAR
STARTCHAR ecircumflex
ENCODING 234
SWIDTH 372 0
DWIDTH 7 0
BBX 10 13 -1 -1
BITMAP
00002A8000
0004E8F400
0018306700
0000120000
0006EF9000
007D2CA000
03F43E3000
0BD4E50007
0FED300086
1FB1000890
0DD102B800
05FECD5000
0026510000
ENDCHAR
STARTCHAR edieresis
ENCODING 235
SWIDTH 372 0
DWIDTH 7 0
BBX 10 13 -1 -1
BITMAP
0000100100
001DE0DF10
0016205300
0000120000
0006EF9000
007D2CA000
03F43E3000
0BD4E50007
0FED300086
1FB1000890
0DD102B800
05FECD5000
0026510000
ENDCHAR
STARTCHAR igrave
ENCODING 236
SWIDTH 274 0
DWIDTH 5 0
BBX 7 13 0 -1
BITMAP
48100000
5ED20000
018A0000
00000000
03A30000
0CE10000
2FA00000
5F500090
7F100970
9C008900
8C1AB000
3EF90000
01200000
ENDCHAR
STARTCHAR iacute
ENCODING 237
SWIDTH 274 0
DWIDTH 5 0
BBX 7 13 0 -1
BITMAP
00003600
0007FA00
008D6000
00000000
03A30000
0CE10000
2FA00000
5F500090
7F100970
9C008900
8C1AB000
3EF90000
01200000
ENDCHAR
STARTCHAR icircumflex
ENCODING 238
SWIDTH 274 0
DWIDTH 5 0
BBX 7 13 0 -1
BITMAP
006B4000
09CAD000
47118400
00000000
03A30000
0CE10000
2FA00000
5F500090
7F100970
9C008900
8C1AB000
3EF90000
01200000
ENDCHAR
STARTCHAR idieresis
ENCODING 239
SWIDTH 274 0
DWIDTH 5 0
BBX 7 13 0 -1
BITMAP
01001000
5F84F900
36126100
00000000
03A30000
0CE10000
2FA00000
5F500090
7F100970
9C008900
8C1AB000
3EF90000
01200000
ENDCHAR
STARTCHAR eth
ENCODING 240
SWIDTH 393 0
DWIDTH 8 0
BBX 11 15 -1 -1
BITMAP
000001000000
00000A300000
000005B24200
00017BFFD300
0009D8E40000
000200E50000
002BD9E50000
00CD4BF50040
07F706F31960
0DFA06F8C400
1F7EDEF91000
1F415F800000
0E607E200000
08ECE5000000
004510000000
ENDCHAR
STARTCHAR ntilde
ENCODING 241
SWIDTH 461 0
DWIDTH 9 0
BBX 12 13 -1 -1
BITMAP
000021002000
002EFFBBB000
001601561000
000000000000
003716B50000
00CEACFD0000
01FF80CD0000
04FA00EB0017
07F203F700A3
0BD007F30870
0E900AE08A00
3F500AFDA000
230001640000
ENDCHAR
STARTCHAR ograve
ENCODING 242
SWIDTH 393 0
DWIDTH 8 0
BBX 11 13 -1 -1
BITMAP
000481000000
0005ED200000
000018A00000
000000000000
002BD9000000
00CD4B900040
07F706E01960
0DFA06F7C400
1F7EDEE81000
1F415F800000
0E607E200000
08ECE5000000
004510000000
ENDCHAR
STARTCHAR oacute
ENCODING 243
SWIDTH 393 0
DWIDTH 8 0
BBX 11 13 -1 -1
BITMAP
000001800000
00003DE20000
0002E9200000
000000000000
002BD9000000
00CD4B900040
07F706E01960
0DFA06F7C400
1F7EDEE81000
1F415F800000
0E607E200000
08ECE5000000
004510000000
ENDCHAR
STARTCHAR ocircumflex
ENCODING 244
SWIDTH 393 0
DWIDTH 8 0
BBX 11 13 -1 -1
BITMAP
00007B200000
001BACA00000
006602920000
000000000000
002BD9000000
00CD4B900040
07F706E01960
0DFA06F7C400
1F7EDEE81000
1F415F800000
0E607E200000
08ECE5000000
004510000000
ENDCHAR
STARTCHAR otilde
ENCODING 245
SWIDTH 393 0
DWIDTH 8 0
BBX 11 13 -1 -1
BITMAP
000210020000
00CFFCAE0000
006115620000
000000000000
002BD9000000
00CD4B900040
07F706E01960
0DFA06F7C400
1F7EDEE81000
1F415F800000
0E607E200000
08ECE5000000
004510000000
ENDCHAR
STARTCHAR odieresis
ENCODING 246
SWIDTH 393 0
DWIDTH 8 0
BBX 11 13 -1 -1
BITMAP
000110010000
003FA2EC0000
002611620000
000000000000
002BD9000000
00CD4B900040
07F706E01960
0DFA06F7C400
1F7EDEE81000
1F415F800000
0E607E200000
08ECE5000000
004510000000
ENDCHAR
STARTCHAR divide
ENCODING 247
SWIDTH 350 0
DWIDTH 7 0
BBX 8 7 -1 4
BITMAP
00002400
0000DE10
00002100
09DEEEEA
1B876664
00046000
001FB000
ENDCHAR
STARTCHAR oslash
ENCODING 248
SWIDTH 406 0
DWIDTH 8 0
BBX 11 11 -1 -2
BITMAP
000000292000
0019DBE90000
009E58E00030
03FA02F30790
09FD12F8C700
0C9BEDFA2000
0D705DC00000
0BA04F500000
0CFCF8000000
8F5520000000
630000000000
ENDCHAR
STARTCHAR ugrave
ENCODING 249
SWIDTH 468 0
DWIDTH 9 0
BBX 11 13 0 -1
BITMAP
002920000000
003DE4000000
00006C000000
000000000000
037002810000
1EB00AF20000
6F501FE00000
AF104FB000A0
DB006F500850
E9007E006900
EB03EF26B000
6FFE5DFA1000
024101300000
ENDCHAR
STARTCHAR uacute
ENCODING 250
SWIDTH 468 0
DWIDTH 9 0
BBX 11 13 0 -1
BITMAP
000005400000
00019F700000
000AB4000000
000000000000
037002810000
1EB00AF20000
6F501FE00000
AF104FB000A0
DB006F500850
E9007E006900
EB03EF26B000
6FFE5DFA1000
024101300000
ENDCHAR
STARTCHAR ucircumflex
ENCODING 251
SWIDTH 468 0
DWIDTH 9 0
BBX 11 13 0 -1
BITMAP
00007B200000
001BACA00000
006602920000
000000000000
037002810000
1EB00AF20000
6F501FE00000
AF104FB000A0
DB006F500850
E9007E006900
EB03EF26B000
6FFE5DFA1000
024101300000
ENDCHAR
STARTCHAR udieresis
ENCODING 252
SWIDTH 468 0
DWIDTH 9 0
BBX 11 13 0 -1
BITMAP
000100100000
006F75F80000
003502610000
000000000000
037002810000
1EB00AF20000
6F501FE00000
AF104FB000A0
DB006F500850
E9007E006900
EB03EF26B000
6FFE5DFA1000
024101300000
ENDCHAR
STARTCHAR yacute
ENCODING 253
SWIDTH 406 0
DWIDTH 8 0
BBX 9 21 -1 -9
BITMAP
0000002700
000005ED00
00005D7100
0000000000
0295005910
04F9009F30
07F400BE00
0BE001F900
1F9008F400
3F603FF100
4F62DEC000
1EFFAD8000
02752F4000
00006F1000
00009D0000
0000DA0000
0002F70000
0006F40000
000AF10000
000DD00000
0003400000
ENDCHAR
STARTCHAR thorn
ENCODING 254
SWIDTH 451 0
DWIDTH 9 0
BBX 13 23 -2 -9
BITMAP
00003960000000
00006F90000000
00007F60000000
0000AF10000000
0000EC00000000
0002F700000000
0006F35A500000
0009D9CDE00000
000DF805F10000
001FA007E00240
005F200DA01B10
009D207F31B400
00CFFAF93C6000
01FDFFFEE50000
05F38624100000
09E00000000000
0CB00000000000
1F800000000000
5F500000000000
9F200000000000
DE000000000000
FB000000000000
43000000000000
ENDCHAR
STARTCHAR ydieresis
ENCODING 255
SWIDTH 406 0
DWIDTH 8 0
BBX 9 21 -1 -9
BITMAP
0000100100
001DE0DF10
0016205300
0000000000
0295005910
04F9009F30
07F400BE00
0BE001F900
1F9008F400
3F603FF100
4F62DEC000
1EFFAD8000
02752F4000
00006F1000
00009D0000
0000DA0000
0002F70000
0006F40000
000AF10000
000DD00000
0003400000
ENDCHAR
STARTCHAR dotlessi
ENCODING 305
SWIDTH 274 0
DWIDTH 5 0
BBX 7 9 0 -1
BITMAP
03A30000
0CE10000
2FA00000
5F500090
7F100970
9C008900
8C1AB000
3EF90000
01200000
ENDCHAR
STARTCHAR Lslash
ENCODING 321
SWIDTH 492 0
DWIDTH 10 0
BBX 13 19 -2 -4
BITMAP
00000000038920
000000004FFF80
00000001DD1E90
00000007F63F60
0000000BF2CC00
0000000FECE300
0021005FFE3000
003EEFFF910000
000155BF200000
000000DD120000
000158FFFC0000
000BFFF8310000
00072AE0000000
00002F80000000
00008E20000000
3CFEE800000000
DD7EFE71007100
CEE92BFECED000
1310005BDD3000
ENDCHAR
STARTCHAR lslash
ENCODING 322
SWIDTH 218 0
DWIDTH 4 0
BBX 8 15 -2 -1
BITMAP
00004A40
00009F60
0000AF30
0000DE00
0002FA00
0005F853
059DFFE5
3FDEE200
131FA000
004F6000
008F2000
00CD0000
01F90000
03F50000
00510000
ENDCHAR
STARTCHAR OE
ENCODING 338
SWIDTH 918 0
DWIDTH 18 0
BBX 19 19 0 -4
BITMAP
000008D97000038A9400
0000BFE9F702BF846F40
0009F640CD2EE3000E90
004F90009FDF50001F90
00CF20007FFD00008F50
03F900006FFA0007FC00
09F300006FFA00015100
0EE000007FFD00000000
3FA000009FBF81100000
7F700000AF4DFFE00000
9F400000DFF936300000
BF300002FF6000000000
CF200006FB0000000000
CF10000CF70000008000
BF20003FF7000003B000
9F3000BFFB00001D4000
4F7007F7FF7003C80000
0AE6AF705FFEDF800000
008CA300027983000000
ENDCHAR
STARTCHAR oe
ENCODING 339
SWIDTH 583 0
DWIDTH 12 0
BBX 15 10 -1 -1
BITMAP
0000000002100000
002BD912CFE10000
00CD4BBE75F20000
07F706FB0BB00000
0DFD26F7AC100340
1F6CFEFF91002B10
1F404FF30003C200
0E608FF5006D2000
08EDE5DFCD910000
0045101662000000
ENDCHAR
STARTCHAR Scaron
ENCODING 352
SWIDTH 474 0
DWIDTH 10 0
BBX 13 23 -1 -4
BITMAP
00000008504810
00000004F9D300
00000000891000
00000000000000
000005ACB70000
0001BFA46F7000
000AF6000DC000
003F90000DC000
008F50002FA000
007F60009E4000
003FD000100000
000CFA00000000
0002EF80000000
00004FF4000000
000007FB000000
000000EF000000
0000009F100000
1650007F100000
BF40007D000000
DF3000D8000000
AF8007E2000000
3FF9AF50000000
03AC9300000000
ENDCHAR
STARTCHAR scaron
ENCODING 353
SWIDTH 351 0
DWIDTH 7 0
BBX 7 14 0 -1
BITMAP
01940670
007E9C20
00198000
00000000
003B6000
02EF5000
04FE0000
08BF3000
3B0DA000
8108F200
0402F700
5F40F400
3FDB8000
04950000
ENDCHAR
STARTCHAR Ydieresis
ENCODING 376
SWIDTH 532 0
DWIDTH 11 0
BBX 12 22 0 -4
BITMAP
000000100100
000008F57F60
000004503500
000681000493
005FC0000DF2
009F60002FD0
00DF10005F80
02FB00008F40
06F60000CE00
0AF20001FB00
0DD00005F700
1FA0000BF400
3F70003FE000
5F6000CEB000
4FA01ABC7000
0DFEFA2F4000
0167306E0000
000000D90000
040006F30000
7F827F800000
BFFFF9000000
179830000000
ENDCHAR
STARTCHAR Zcaron
ENCODING 381
SWIDTH 455 0
DWIDTH 9 0
BBX 13 22 -2 -4
BITMAP
00000006702830
00000002F9E500
000000006A3000
00003678876400
0003FFFFFFFD00
0005B63100FD00
0000000006F800
000000001EE200
00000000AF7000
00000006FB0000
0000003FD10000
000001DE300000
00000BF5000000
00009F70000000
0006FA00000000
002FC100000000
00CE2000000000
06F50000000000
1EB00000000000
7F99CDDDB40000
7FFFFFFFD10000
27310125200000
ENDCHAR
STARTCHAR zcaron
ENCODING 382
SWIDTH 349 0
DWIDTH 7 0
BBX 12 21 -3 -9
BITMAP
000008604810
000004F9D400
000000891000
000000000000
0005ADEE9000
000DC86E8000
0002005F2000
000001D80000
000009D10053
00008F8404A0
0006FCAE7A10
0003916F8000
00004CDC0000
001AD3C80000
00BC13F40000
08D10AD00000
2F403F700000
7E00BE100000
9E06F6000000
6FDFA0000000
07A700000000
ENDCHAR
STARTCHAR circumflex
ENCODING 710
SWIDTH 567 0
DWIDTH 11 0
BBX 6 3 4 11
BITMAP
006B40
09CAD0
571184
ENDCHAR
STARTCHAR caron
ENCODING 711
SWIDTH 567 0
DWIDTH 11 0
BBX 6 3 4 11
BITMAP
670283
2F9E50
06A300
ENDCHAR
STARTCHAR breve
ENCODING 728
SWIDTH 567 0
DWIDTH 11 0
BBX 6 4 4 10
BITMAP
320032
AA03E3
4EEE50
013100
ENDCHAR
STARTCHAR dotaccent
ENCODING 729
SWIDTH 567 0
DWIDTH 11 0
BBX 3 3 5 11
BITMAP
0110
1ED0
1620
ENDCHAR
STARTCHAR ring
ENCODING 730
SWIDTH 567 0
DWIDTH 11 0
BBX 4 3 5 11
BITMAP
0440
5AC2
4CA0
ENDCHAR
STARTCHAR ogonek
ENCODING 731
SWIDTH 567 0
DWIDTH 11 0
BBX 6 4 4 -3
BITMAP
1B3000
7E0052
6FDD60
023000
ENDCHAR
STARTCHAR tilde
ENCODING 732
SWIDTH 567 0
DWIDTH 11 0
BBX 7 3 3 11
BITMAP
00210020
1DFFCBC0
06115620
ENDCHAR
STARTCHAR hungarumlaut
ENCODING 733
SWIDTH 567 0
DWIDTH 11 0
BBX 8 3 3 11
BITMAP
00270180
05ED3DE2
5D73E810
ENDCHAR
STARTCHAR endash
ENCODING 8211
SWIDTH 353 0
DWIDTH 7 0
BBX 8 2 -1 5
BITMAP
1BEEFFE9
39766552
ENDCHAR
STARTCHAR emdash
ENCODING 8212
SWIDTH 508 0
DWIDTH 10 0
BBX 11 3 -1 5
BITMAP
000011110000
2DEFFFFFFE90
298776677960
ENDCHAR
STARTCHAR quoteleft
ENCODING 8216
SWIDTH 155 0
DWIDTH 3 0
BBX 4 5 0 9
BITMAP
0051
05A0
0D90
1FF3
0A80
ENDCHAR
STARTCHAR quoteright
ENCODING 8217
SWIDTH 154 0
DWIDTH 3 0
BBX 3 5 1 9
BITMAP
1720
AF80
6E60
2D10
7300
ENDCHAR
STARTCHAR quotesinglbase
ENCODING 8218
SWIDTH 188 0
DWIDTH 4 0
BBX 3 5 -1 -3
BITMAP
5E70
AF90
1D40
4A00
3000
ENDCHAR
STARTCHAR quotedblleft
ENCODING 8220
SWIDTH 289 0
DWIDTH 6 0
BBX 6 5 0 9
BITMAP
005105
05A0A5
0D93F5
1FFAFD
0A83B4
ENDCHAR
STARTCHAR quotedblright
ENCODING 8221
SWIDTH 288 0
DWIDTH 6 0
BBX 6 5 1 9
BITMAP
283481
AF9FF3
6E69F1
2D1680
620800
ENDCHAR
STARTCHAR quotedblbase
ENCODING 8222
SWIDTH 323 0
DWIDTH 6 0
BBX 6 5 -1 -3
BITMAP
5E79E3
AF9FF4
1D44E0
4A0950
300300
ENDCHAR
STARTCHAR bullet
ENCODING 8226
SWIDTH 180 0
DWIDTH 4 0
BBX 5 5 -1 3
BITMAP
03C800
0DFF10
2FFF00
2FF900
067000
ENDCHAR
STARTCHAR ellipsis
ENCODING 8230
SWIDTH 614 0
DWIDTH 12 0
BBX 11 3 -1 -1
BITMAP
056005600560
7FD07FD07FD0
261026102610
ENDCHAR
STARTCHAR perthousand
ENCODING 8240
SWIDTH 851 0
DWIDTH 17 0
BBX 17 16 0 -1
BITMAP
001650000175000000
01DBC7000AD1000000
09B05D006E30000000
1F405D02E600000000
3F109B0BA000000000
2F12E57D1000000000
0DCD93E40000000000
02640C900000000000
00008D159500179200
0003F46E7E40BB8D00
000D91E50A96E11F20
008D15E00A8C801F20
04F507B00E5E505E00
1DB007C07D0D71D800
9F2002EDE307FEB000
410000241000330000
ENDCHAR
STARTCHAR guilsinglleft
ENCODING 8249
SWIDTH 202 0
DWIDTH 4 0
BBX 5 9 -1 -1
BITMAP
000570
005D10
04E300
3E7000
9E0000
2F5000
08C000
01D300
002100
ENDCHAR
STARTCHAR guilsinglright
ENCODING 8250
SWIDTH 202 0
DWIDTH 4 0
BBX 6 9 -2 -1
BITMAP
00A100
009900
002F30
000BC0
000AE1
005E30
03E400
1D5000
120000
ENDCHAR
STARTCHAR fraction
ENCODING 8260
SWIDTH 600 0
DWIDTH 12 0
BBX 13 16 0 -1
BITMAP
00000000003910
0000000003E600
000000000CA000
000000008D1000
00000003F40000
0000001D800000
0000009C000000
000004E2000000
00001D60000000
0000AB00000000
0005F200000000
001E7000000000
00AD0000000000
06F40000000000
2EA00000000000
24000000000000
ENDCHAR
STARTCHAR Euro
ENCODING 8364
SWIDTH 334 0
DWIDTH 7 0
BBX 9 13 -1 1
BITMAP
0000001000
00003CDC20
0003E70990
000CB00210
006F300000
07DE875000
3BF9775000
5CFCCB1000
7BD4320000
08B0000000
04C002A000
00C54C4000
0018820000
ENDCHAR
STARTCHAR minus
ENCODING 8722
SWIDTH 353 0
DWIDTH 7 0
BBX 8 2 -1 5
BITMAP
1BEEFFE9
39766552
ENDCHAR
STARTCHAR fi
ENCODING 64257
SWIDTH 549 0
DWIDTH 11 0
BBX 15 24 -2 -10
BITMAP
00003CC000000000
00003FD000590000
00003FB000DC0000
00004F7000420000
00007F3000000000
0000AD0000000000
0000E80007800000
0003F4004F800000
0008E479DF300000
003EFB62CD000460
00EF4000E9002C10
00DF1001F502D400
00BFC101F54D5000
00F7CB009FE40000
04F22F5002100000
08D00BB000000000
0CA009D000000000
1F600AC000000000
4F301E7000000000
7E008F1000000000
BC05F70000000000
DDAFB00000000000
BFFA100000000000
1530000000000000
ENDCHAR
STARTCHAR fl
ENCODING 64258
SWIDTH 516 0
DWIDTH 10 0
BBX 13 24 -2 -10
BITMAP
00003CC0005A40
00003FD000AF50
00003FB000BF20
00004F7000ED00
00007F3003F900
0000AD0006F500
0000E8000AF100
0003F4000DD000
0008E479BF9000
003EFB625F5000
00EF40009F1000
00DF1000DC0000
00BFC101F80000
00F7CB04F50000
04F22F50500000
08D00BB0000000
0CA009D0000000
1F600AC0000000
4F301E70000000
7E008F10000000
BC05F700000000
DDAFB000000000
BFFA1000000000
15300000000000
ENDCHAR
STARTCHAR .notdef
ENCODING -1
SWIDTH 280 0
DWIDTH 6 0
BBX 1 1 0 0
BITMAP
00
ENDCHAR
ENDFONT
